<?xml version="1.0" encoding="UTF-8"?>
<svg id="Layer_1" data-name="Layer 1" xmlns="http://www.w3.org/2000/svg" viewBox="0 0 512 512">
  <defs>
    <style>
      .cls-1 {
        fill: #be6176;
        stroke-width: 0px;
      }
    </style>
  </defs>
  <path class="cls-1" d="M507.56,372.52l-52.48-26.24-33.4-86.88c-.79-2.08-2.42-3.73-4.48-4.56l-207.24-82.84c-2.96-1.18-6.34-.49-8.6,1.76l-27.64,27.64c-2.22,2.26-2.89,5.62-1.72,8.56l82.84,207.24c.83,2.06,2.48,3.69,4.56,4.48l86.88,33.4,26.24,52.48c1.12,2.35,3.31,4,5.88,4.44.43.04.85.04,1.28,0,2.12,0,4.15-.86,5.64-2.36l124.32-124.32c1.86-1.79,2.74-4.37,2.36-6.92-.44-2.57-2.09-4.76-4.44-5.88ZM188.76,208.92l4.44-4.4,103.16,103.16c-14.99,21.24-9.92,50.62,11.32,65.61s50.62,9.92,65.61-11.32,9.92-50.62-11.32-65.61c-16.27-11.49-38.02-11.49-54.29,0l-103.16-103.16,4.4-4.44,199.08,79.64,31.4,81.68-89.32,89.32-81.68-31.4-79.64-199.08ZM334.8,303.72c17.16.03,31.06,13.96,31.03,31.13-.03,17.16-13.96,31.06-31.13,31.03-17.16-.03-31.06-13.96-31.03-31.13.01-8.24,3.29-16.13,9.13-21.95,5.84-5.82,13.75-9.09,22-9.08ZM381.88,490.48l-20-40,88.52-88.52,40,20-108.52,108.52Z"/>
  <path class="cls-1" d="M153,428c-3.18-3-8.14-3-11.32,0l-10.16,10.16c-55.58-75.43-57.19-177.82-4-254.96,19.86,10.93,44.81,3.69,55.74-16.17,6.74-12.25,6.78-27.1.1-39.39,77.14-53.19,179.53-51.58,254.96,4l-10.32,10.04c-1.49,1.5-2.32,3.53-2.32,5.64-.01,2.13.82,4.17,2.32,5.68l35.28,35c3.12,3.1,8.16,3.1,11.28,0l35.08-35.08c3.13-3.12,3.13-8.19,0-11.31,0,0,0,0,0,0l-35.08-35.08c-3.12-3.1-8.16-3.1-11.28,0l-13.56,13.48c-68.05-51.2-158.42-61.71-236.4-27.48l46.12-46c12.22,5.84,26.86.67,32.7-11.55,5.84-12.22.67-26.86-11.55-32.7-12.22-5.84-26.86-.67-32.7,11.55-3.23,6.77-3.19,14.64.11,21.38l-77.84,77.96c-18.84-12.64-44.36-7.61-57,11.23-9.29,13.84-9.29,31.93,0,45.77l-77.96,77.84c-12.19-5.94-26.89-.87-32.84,11.32-5.94,12.19-.87,26.89,11.32,32.84,12.19,5.94,26.89.87,32.84-11.32,3.31-6.79,3.31-14.73,0-21.52l46.12-46c-34.26,77.96-23.8,168.33,27.36,236.4l-13.52,13.56c-3.1,3.12-3.1,8.16,0,11.28l35.08,35.08c1.49,1.5,3.52,2.35,5.64,2.36,2.13,0,4.18-.85,5.68-2.36l35.12-35.08c3.1-3.12,3.1-8.16,0-11.28l-35-35.28ZM469,123.4l23.76,23.76-23.76,23.76-23.76-23.76,23.76-23.76ZM264,18.52c3.31-3.34,8.71-3.36,12.05-.05,3.34,3.31,3.36,8.71.05,12.05-3.31,3.34-8.71,3.36-12.05.05-.02-.02-.03-.03-.05-.05-3.31-3.31-3.32-8.68,0-11.99,0,0,0,0,0,0ZM129.6,129.6c9.74-9.79,25.57-9.82,35.36-.08.03.03.06.06.08.08,9.8,9.79,9.81,25.67.03,35.47-9.79,9.8-25.67,9.81-35.47.03-9.8-9.79-9.81-25.67-.03-35.47,0,0,.02-.02.03-.03ZM30.56,276c-3.61,3.01-8.99,2.53-12-1.09-2.64-3.16-2.64-7.75,0-10.91,3.33-3.27,8.67-3.27,12,0,3.31,3.31,3.32,8.68,0,11.99,0,0,0,0,0,0ZM147.32,492.52l-23.76-23.76,23.76-23.76,23.76,23.76-23.76,23.76Z"/>
</svg>