<?xml version="1.0" encoding="UTF-8"?>
<svg id="Layer_1" data-name="Layer 1" xmlns="http://www.w3.org/2000/svg" version="1.1" viewBox="0 0 512 512">
  <defs>
    <style>
      .cls-1 {
        stroke-width: 0px;
      }

      .cls-1, .cls-2 {
        fill: #be6176;
      }

      .cls-2 {
        font-family: AdobeArabic-Regular, 'Adobe Arabic';
        font-size: 12px;
      }
    </style>
  </defs>
  <text class="cls-2" transform="translate(297.6 420.9)"><tspan x="0" y="0">be6176</tspan></text>
  <path class="cls-1" d="M400.7,56.3v-13.4c0-6-5-11-11-11h-27.1c-6,0-11,5-11,11v13.4h49.1ZM335.5,56.3v-13.4c0-14.9,12.1-27,27-27h27.1c14.9,0,27,12.2,27,27v13.4h28.2c24.9,0,45.2,20.3,45.2,45.2v231.2c0,24.9-20.3,45.2-45.2,45.2h-125.4v36h46.2c18.7,0,34,15.3,34,34s-15.3,34-34,34h-213.8c-18.7,0-34-15.3-34-34s15.3-34,34-34h46.2v-36h-125.5c-24.9,0-45.2-20.3-45.2-45.2V101.4c0-24.9,20.3-45.2,45.2-45.2h263ZM357.7,220.2l18.4,30.5,18.4-30.5h-36.8ZM415.3,216.7l-32.3,53.5c-3.1,5.3-10.7,5.2-13.7.1l-32.4-53.7c-.9-1.3-1.4-2.8-1.4-4.5v-106.8H76.5v223.5h364.5V105.3h-24.3v106.9c0,1.6-.5,3.2-1.4,4.5h0ZM416.7,72.3v17h25c8.4,0,15.3,6.9,15.3,15.3v225c0,8.4-6.9,15.3-15.3,15.3H75.7c-8.4,0-15.2-6.8-15.2-15.3V104.6c0-4.2,1.7-8,4.5-10.7,2.7-2.7,6.6-4.5,10.8-4.5h259.8v-17H72.6c-16,0-29.2,13.2-29.2,29.2v231.2c0,16,13.2,29.2,29.2,29.2h372.4c16,0,29.2-13.1,29.2-29.2V101.4c0-16-13.2-29.2-29.2-29.2h-28.3ZM351.5,72.3v132h49.2V72.3h-49.2ZM228.4,218.8c-4.4.7-8.5-2.2-9.2-6.5-.7-4.4,2.2-8.5,6.6-9.2l25.4-4.3c4.4-.7,8.5,2.2,9.2,6.6.7,4.3-2.2,8.4-6.5,9.2l-25.5,4.2ZM228.4,192.9c-4.4.7-8.5-2.2-9.2-6.5-.7-4.4,2.2-8.5,6.6-9.2l31.2-5.3c4.3-.7,8.5,2.2,9.2,6.5.7,4.4-2.2,8.5-6.5,9.2l-31.3,5.3ZM228.4,165.5c-4.4.7-8.5-2.2-9.2-6.6-.7-4.3,2.2-8.4,6.6-9.2l25.4-4.3c4.4-.7,8.5,2.2,9.2,6.5.7,4.4-2.2,8.5-6.5,9.2l-25.5,4.4ZM228.4,246.1c-4.4.7-8.5-2.2-9.2-6.6-.7-4.3,2.2-8.4,6.6-9.2l31.2-5.3c4.3-.7,8.5,2.2,9.2,6.6.7,4.3-2.2,8.4-6.5,9.2l-31.3,5.3ZM181.8,203c4.4.7,7.3,4.8,6.6,9.2-.7,4.3-4.8,7.3-9.2,6.5l-25.4-4.3c-4.4-.7-7.3-4.8-6.6-9.2s4.8-7.3,9.2-6.6l25.4,4.4ZM181.8,177.1c4.4.7,7.3,4.8,6.6,9.2-.7,4.3-4.8,7.3-9.2,6.5l-31.2-5.3c-4.4-.7-7.3-4.8-6.6-9.2.7-4.3,4.8-7.3,9.2-6.5l31.2,5.3ZM181.8,149.8c4.4.7,7.3,4.8,6.6,9.2s-4.8,7.3-9.2,6.6l-25.4-4.3c-4.4-.7-7.3-4.8-6.6-9.2.7-4.3,4.8-7.3,9.2-6.5l25.4,4.2ZM181.8,230.4c4.4.7,7.3,4.8,6.6,9.2s-4.8,7.3-9.2,6.6l-31.2-5.3c-4.4-.7-7.3-4.8-6.6-9.2s4.8-7.3,9.2-6.6l31.2,5.3ZM134,158.3v95.8c20-.3,43,2.6,61.8,8.2v-118.5c-18-6.1-42.3-9.3-61.8-9v23.5ZM118,262.3v-109.3h-9v131.9h82.9c4.4,0,8,3.6,8,8v6.3h7.3v-6.3c0-4.4,3.6-8,8-8h82.8v-131.9h-8.5v109.4c0,4.7-3.9,8.4-9,7.9-8-.7-21.9-.1-30.5.9-15.4,1.6-30,4.6-43.4,9.7-1.9.7-3.9.7-5.8,0-17.3-6.7-40.2-10.3-59.5-10.8-5-.1-9.8-.1-14.4.2-5,.5-8.9-3.2-8.9-8h0ZM118,137v-9.8c0-4.2,3.3-7.7,7.5-8,18.9-1.2,40.9.9,59.3,5,32.4,7.3,5.6,7.3,38.1,0,18.4-4.1,40.3-6.2,59.2-5,4.2.3,7.5,3.8,7.5,8v9.8h16.4c4.4,0,8,3.6,8,8v147.9c0,4.4-3.6,8-8,8h-82.9c-.9,8-7.6,14.3-15.7,14.3s-13.4.9-19-4.8c-2.5-2.5-4.1-5.8-4.5-9.5h-83c-4.4,0-8-3.6-8-8v-147.9c0-4.4,3.6-8,8-8h17.1ZM211.8,143.8v118.5c18.8-5.6,41.8-8.4,61.8-8.2v-119.3c-19.5-.3-43.8,2.9-61.8,9h0ZM214.1,377.8v36h89.3v-36h-89.3ZM151.8,465.8h213.8c15.8,0,24.2-19.3,12.7-30.7-3.3-3.3-7.8-5.3-12.7-5.3h-213.8c-15.8,0-24.2,19.3-12.7,30.7,3.3,3.3,7.8,5.3,12.7,5.3Z"/>
</svg>