<?xml version="1.0" encoding="UTF-8"?>
<svg id="Layer_1" data-name="Layer 1" xmlns="http://www.w3.org/2000/svg" version="1.1" viewBox="0 0 512 512">
  <defs>
    <style>
      .cls-1 {
        fill: #be6176;
        stroke-width: 0px;
      }
    </style>
  </defs>
  <path class="cls-1" d="M476,64H36c-15.5,0-28,12.5-28,28v304c0,15.5,12.5,28,28,28h153.4l-11.4,40h-34c-4.4,0-8,3.6-8,8v24c0,4.4,3.6,8,8,8h224c4.4,0,8-3.6,8-8v-24c0-4.4-3.6-8-8-8h-34l-11.4-40h153.4c15.5,0,28-12.5,28-28V92c0-15.5-12.5-28-28-28ZM360,480v8h-208v-8h208ZM194.6,464l11.4-40h99.9l11.4,40h-122.8ZM488,396c0,6.6-5.4,12-12,12H36c-6.6,0-12-5.4-12-12v-20h464v20ZM488,360H24V92c0-6.6,5.4-12,12-12h440c6.6,0,12,5.4,12,12v268Z"/>
  <path class="cls-1" d="M48,160h32c4.4,0,8-3.6,8-8v-32c0-4.4-3.6-8-8-8h-32c-4.4,0-8,3.6-8,8v32c0,4.4,3.6,8,8,8ZM56,128h16v16h-16v-16ZM48,216h32c4.4,0,8-3.6,8-8v-32c0-4.4-3.6-8-8-8h-32c-4.4,0-8,3.6-8,8v32c0,4.4,3.6,8,8,8ZM56,184h16v16h-16v-16ZM48,272h32c4.4,0,8-3.6,8-8v-32c0-4.4-3.6-8-8-8h-32c-4.4,0-8,3.6-8,8v32c0,4.4,3.6,8,8,8ZM56,240h16v16h-16v-16ZM48,328h32c4.4,0,8-3.6,8-8v-32c0-4.4-3.6-8-8-8h-32c-4.4,0-8,3.6-8,8v32c0,4.4,3.6,8,8,8ZM56,296h16v16h-16v-16ZM432,160h32c4.4,0,8-3.6,8-8v-32c0-4.4-3.6-8-8-8h-32c-4.4,0-8,3.6-8,8v32c0,4.4,3.6,8,8,8ZM440,128h16v16h-16v-16ZM432,216h32c4.4,0,8-3.6,8-8v-32c0-4.4-3.6-8-8-8h-32c-4.4,0-8,3.6-8,8v32c0,4.4,3.6,8,8,8ZM440,184h16v16h-16v-16ZM432,272h32c4.4,0,8-3.6,8-8v-32c0-4.4-3.6-8-8-8h-32c-4.4,0-8,3.6-8,8v32c0,4.4,3.6,8,8,8ZM440,240h16v16h-16v-16ZM432,328h32c4.4,0,8-3.6,8-8v-32c0-4.4-3.6-8-8-8h-32c-4.4,0-8,3.6-8,8v32c0,4.4,3.6,8,8,8ZM440,296h16v16h-16v-16ZM168.1,270l-15.2,30.4c-2,4-.4,8.8,3.6,10.7,1.1.6,2.3.8,3.6.8h80c4.4,0,8-3.6,8-8,0-1.2-.3-2.5-.8-3.6l-21.8-43.6c26.9-22.9,30.2-63.2,7.4-90.1-22.9-26.9-63.2-30.2-90.1-7.4-26.9,22.9-30.2,63.2-7.4,90.1,8.6,10.1,20,17.3,32.9,20.6h0ZM227.1,296h-54.1l12-24c9.3-.1,18.5-2.3,26.9-6.4l15.2,30.4ZM193.4,255.1l6.6-13.2,4.7,9.4c-3.6,1.7-7.4,3-11.3,3.8ZM184,160c26.5,0,48,21.5,48,48,0,12.7-5.1,25-14.1,34l-10.8-21.5c-2-4-6.8-5.6-10.7-3.6-1.5.8-2.8,2-3.6,3.6l-17.4,34.8c-26.1-4.7-43.4-29.7-38.7-55.8,4.1-22.8,24-39.5,47.2-39.5Z"/>
  <path class="cls-1" d="M254.2,272.2l92.1,27c4.2,1.2,8.7-1.2,9.9-5.4,0,0,0,0,0,0l27-92.1c1.2-4.2-1.2-8.7-5.4-9.9,0,0,0,0,0,0l-92.1-27c-4.2-1.2-8.7,1.2-9.9,5.4,0,0,0,0,0,0l-27,92.1c-1.2,4.2,1.2,8.7,5.4,9.9,0,0,0,0,0,0h0ZM288.9,182.3l76.8,22.5-22.5,76.8-76.8-22.5,22.5-76.8ZM132.4,39.2l32,16c1.1.6,2.3.8,3.6.8h192c13.3,0,24-10.7,24-24s-10.7-24-24-24h-192c-1.2,0-2.5.3-3.6.8l-32,16c-4,2-5.6,6.8-3.6,10.7.8,1.5,2,2.8,3.6,3.6ZM368,32c0,4.4-3.6,8-8,8h-168v-16h168c4.4,0,8,3.6,8,8ZM169.9,24h6.1v16h-6.1l-16-8,16-8Z"/>
</svg>